/* XPM */
static char *close_focus[] = {
/* columns rows colors chars-per-pixel */
"24 24 83 1 ",
"  c #040C10",
". c #102031",
"X c #102435",
"o c #142439",
"O c #142839",
"+ c #242424",
"@ c #282424",
"# c #282824",
"$ c #282828",
"% c #2D2828",
"& c #2D2D28",
"* c #312D2D",
"= c #31312D",
"- c #35312D",
"; c #353531",
": c #393531",
"> c #393931",
", c #393935",
"< c #3D3935",
"1 c #393939",
"2 c #3D3939",
"3 c #3D3D39",
"4 c #413D39",
"5 c #414139",
"6 c #41413D",
"7 c #45413D",
"8 c #182D41",
"9 c #182D45",
"0 c #183149",
"q c #1C3955",
"w c #3D4145",
"e c #3D4545",
"r c #3D494D",
"t c #3D4D55",
"y c #3D4D59",
"u c #3D4D5D",
"i c #3D515D",
"p c #454541",
"a c #494945",
"s c #4D4945",
"d c #4D4D49",
"f c #514D49",
"g c #55514D",
"h c #414D55",
"j c #414D5D",
"k c #41515D",
"l c #555551",
"z c #595551",
"x c #5D5955",
"c c #616159",
"v c #65655D",
"b c #415161",
"n c #415565",
"m c #415569",
"M c #41596D",
"N c #415971",
"B c #415D75",
"V c #415D79",
"C c #416586",
"Z c #41658A",
"A c #41698E",
"S c #45698E",
"D c #45719E",
"F c #4575A2",
"G c #4579AA",
"H c #4579AE",
"J c #4179B2",
"K c #417DB6",
"L c #417DBA",
"P c #4582BA",
"I c #4582BE",
"U c #4586BE",
"Y c #4986BE",
"T c #4586C2",
"R c #4986C2",
"E c #4986C6",
"W c #498AC6",
"Q c #498ACA",
"! c #498ACE",
"~ c #498ECE",
"^ c #4D8ED2",
"/ c #4D92D2",
"( c #4D92D7",
/* pixels */
"vvvvvvvvvvvvvvvvvvvvvvvv",
"cccccccccccccccccccccccc",
"xxxxxxxxxxxxxxxxxxxxxxxx",
"zzzzzzzldp6336pdlzzzzzzz",
"gggggga333tbbh334sgggggg",
"ffffd63eSIEWWEPCw37dffff",
"aaaa63MUWWWWWWWWIm36aaaa",
"ppp53VEWQQQQQQQQWRB36ppp",
"6663kRWQQ!~~~~!QQWRy3566",
"3333GWQQKW~^^~WLQQWG3333",
"<<3kEWQ~qOQ//Qoq~QWEi3<<",
",,3ZWQQ~!8.!!.0~~QQWZ3,,",
">,3FWQ!~^^9..9^^~!QWD3,>",
";,3GWQ~~^(Q  Q(^~~QWG3,;",
";>3FWQ!~^QX88O!^~!QWD3>;",
"-;3ZWQQ~Qo8^~O8Q~QQWZ3;-",
"==3bEWQ~qOQ//QqJ~QWEj2==",
"==,3HWQQKW~^^~~QQQWG3>==",
"&&=3kTWQQ!~~~~!QQWTu3=&&",
"&&&;3BEWQQQQQQQQWEN3;&&&",
"%%%%,3mYWWWWWWWWYn3:%%%%",
"####$;3wCPEWWEPAe3;$####",
"######=,33tbbr33,=######",
"+++++++@&;,11,;*@+++++++"
};
