/* XPM */
static char *close_unfocus[] = {
/* columns rows colors chars-per-pixel */
"24 24 49 1 ",
"  c #080808",
". c #141414",
"X c #181814",
"o c #181818",
"O c #1C1C18",
"+ c #1C1C1C",
"@ c #20201C",
"# c #242424",
"$ c #282424",
"% c #282824",
"& c #282828",
"* c #2D2828",
"= c #2D2D28",
"- c #312D2D",
"; c #31312D",
": c #35312D",
"> c #353531",
", c #393531",
"< c #393931",
"1 c #393935",
"2 c #3D3935",
"3 c #3D3939",
"4 c #3D3D39",
"5 c #413D39",
"6 c #413D3D",
"7 c #414139",
"8 c #41413D",
"9 c #45413D",
"0 c #45453D",
"q c #454541",
"w c #494941",
"e c #494945",
"r c #4D4945",
"t c #4D4D45",
"y c #4D4D49",
"u c #514D49",
"i c #515149",
"p c #51514D",
"a c #55514D",
"s c #55554D",
"d c #555551",
"f c #595551",
"g c #595955",
"h c #5D5955",
"j c #5D5D55",
"k c #5D5D59",
"l c #616159",
"z c #61615D",
"x c #65655D",
/* pixels */
"xxxxxxxxxxxxxxxxxxxxxxxx",
"llllllllllllllllllllllll",
"hhhhhhhhhhhhhhhhhhhhhhhh",
"fffffffdyq5447qydfffffff",
"aaaaaae4440qq9445raaaaaa",
"uuuuy846pgjjjjgu549yuuuu",
"eeee84ejkkkkkkkkgw45eeee",
"qqq74tjkkkkllkkkkje48qqq",
"8884qjkkllllllllkkjq4788",
"4444dkkldkzzzzkdlkkf4444",
"224qjkkl%Olzzlo#lkkjq422",
"114ikklll@XkkX+lllkki411",
"<14dkkllzl@X.+lzllkks41<",
">14dkkllzxk  lxzllkkd41>",
"><4dkkllzkX++Olzllkkd4<>",
":>4ikkllj.@zlO+lllkki4>:",
";;2qjkkl#Olzzl%dlkkjq3;;",
";;14fkkldkzzzzlklkkf4<;;",
"==;4qjkkllllllllkkjq4;==",
"===>4rjkkkkllkkkkje4>===",
"****14wjkkkkkkkkjw4,****",
"%%%%&>44ugjjjjgi74>&%%%%",
"%%%%%%;1448qq8441;%%%%%%",
"#######$=>1221>-$#######"
};
