/* XPM */
static char *close_pressed[] = {
/* columns rows colors chars-per-pixel */
"24 24 116 2 ",
"   c #040810",
".  c #081C31",
"X  c #0C1C31",
"o  c #0C2031",
"O  c #0C2035",
"+  c #0C2039",
"@  c #0C2439",
"#  c #10243D",
"$  c #242424",
"%  c #282424",
"&  c #282824",
"*  c #282828",
"=  c #2D2828",
"-  c #2D2D28",
";  c #2D2D2D",
":  c #31312D",
">  c #35312D",
",  c #353531",
"<  c #393931",
"1  c #393935",
"2  c #3D3935",
"3  c #393939",
"4  c #3D3D39",
"5  c #413D3D",
"6  c #414139",
"7  c #41413D",
"8  c #0C2841",
"9  c #102841",
"0  c #102D49",
"q  c #14314D",
"w  c #143555",
"e  c #3D4141",
"r  c #3D4145",
"t  c #3D4549",
"y  c #39454D",
"u  c #394951",
"i  c #3D4951",
"p  c #394959",
"a  c #394D59",
"s  c #3D4D59",
"d  c #394D5D",
"f  c #394D61",
"g  c #3D5161",
"h  c #3D5165",
"j  c #3D5565",
"k  c #395169",
"l  c #3D5569",
"z  c #3D556D",
"x  c #3D5971",
"c  c #395975",
"v  c #355979",
"b  c #39597D",
"n  c #454541",
"m  c #494945",
"M  c #4D4D49",
"N  c #514D49",
"B  c #55514D",
"V  c #555551",
"C  c #595551",
"Z  c #5D5955",
"A  c #616159",
"S  c #65655D",
"D  c #415D7D",
"F  c #355D82",
"G  c #35618E",
"H  c #356592",
"J  c #3D6592",
"K  c #35699E",
"L  c #3D699A",
"P  c #2D69A6",
"I  c #3169A2",
"U  c #356DA2",
"Y  c #316DAA",
"T  c #3171AA",
"R  c #3571AA",
"E  c #3171AE",
"W  c #3971AA",
"Q  c #286DB2",
"!  c #2D71B2",
"~  c #2D75BA",
"^  c #2D75BE",
"/  c #3171B2",
"(  c #3175B2",
")  c #3171B6",
"_  c #3175B6",
"`  c #3575B6",
"'  c #3175BA",
"]  c #3175BE",
"[  c #3179BE",
"{  c #3D7DBA",
"}  c #416992",
"|  c #2875C2",
" . c #2D75C2",
".. c #2D79C6",
"X. c #2D79CA",
"o. c #2D7DCA",
"O. c #2D7DCE",
"+. c #3179C2",
"@. c #3179C6",
"#. c #317DCE",
"$. c #2D7DD2",
"%. c #3582CE",
"&. c #3986CE",
"*. c #3D86CE",
"=. c #2D82D2",
"-. c #3182D2",
";. c #3582D2",
":. c #3586D7",
">. c #3986D2",
",. c #3986D7",
"<. c #398AD7",
"1. c #3D8AD7",
"2. c #4186CA",
"3. c #418AD2",
"4. c #418AD7",
"5. c #418EDB",
/* pixels */
"S S S S S S S S S S S S S S S S S S S S S S S S ",
"A A A A A A A A A A A A A A A A A A A A A A A A ",
"Z Z Z Z Z Z Z Z Z Z Z Z Z Z Z Z Z Z Z Z Z Z Z Z ",
"C C C C C C C V M n 7 4 4 5 n M V C C C C C C C ",
"B B B B B B m 4 4 4 y a a u 4 4 4 m B B B B B B ",
"N N N N M 7 4 e c K R T E E T F r 4 7 M N N N N ",
"m m m m 7 4 f U T E E / / _ _ ' ) k 4 7 m m m m ",
"n n n 6 4 k T E E / / _ _ ' ' ] [ +.v 4 6 n n n ",
"7 7 7 4 p E E / ( _ _ ' ' [ [ +.+.....d 4 6 7 7 ",
"4 4 4 4 K / ( _ P ! ] [ +.+.^ Q o.o.O./ 4 4 4 4 ",
"2 2 4 d _ _ ' ' q O ~ +... .+ w O.O.$.=.f 4 2 2 ",
"1 1 4 F ' ' ] [ ^ # X ^ ^ X 0 O.=.=.-.-.H 4 1 1 ",
"< 1 4 K [ [ +.@.....8 . . 8 O.=.-.-.-.-.R 4 1 < ",
", 1 4 Y +.....o.o.O.|     ..-.-.-.-.:.:.` 4 1 , ",
", 1 4 I ..o.o.O.O.X.o 8 8 @ #.-.:.:.:.:.W 4 1 , ",
"> , 4 G o.O.$.=.X.+ 9 #.#.@ 9 %.:.,.,.,.J 4 , > ",
": : 4 f $.=.=.-.w @ #.;.:.%.w ' ,.,.<.1.h 4 : : ",
": : 1 4 _ -.-.-.^ #.:.:.:.,.,.>.<.1.1.{ 4 1 : : ",
"- - : 4 f -.-.:.:.:.:.,.,.,.<.1.1.1.1.g 4 : - - ",
"- - - , 4 b :.:.,.,.,.<.1.1.1.1.4.4.D 4 , - - - ",
"= = = = 1 4 z &.,.<.1.1.1.1.4.4.3.x 4 1 = = = = ",
"& & & & & , 4 t L *.1.1.4.5.2.} r 4 , * & & & & ",
"& & & & & & : 3 4 4 i j l s 4 4 1 : & & & & & & ",
"$ $ $ $ $ $ $ % ; , 1 4 3 1 , - % $ $ $ $ $ $ $ "
};
