/* XPM */
static char *grips[] = {
/* columns rows colors chars-per-pixel */
"22 2 44 1 ",
"  c #312D2D",
". c #312D2D",
"X c #312D2D",
"o c #312D2D",
"O c #312D2D",
"+ c #312D2D",
"@ c #312D2D",
"# c #312D2D",
"$ c #312D2D",
"% c #312D2D",
"& c #312D2D",
"* c #312D2D",
"= c #312D2D",
"- c #312D2D",
"; c #312D2D",
": c #312D2D",
"> c #312D2D",
", c #312D2D",
"< c #312D2D",
"1 c #312D2D",
"2 c #312D2D",
"3 c #312D2D",
"4 c #494941",
"5 c #494941",
"6 c #494941",
"7 c #494941",
"8 c #494941",
"9 c #494941",
"0 c #494941",
"q c #494941",
"w c #494941",
"e c #494941",
"r c #494941",
"t c #494941",
"y c #494941",
"u c #494941",
"i c #494941",
"p c #494941",
"a c #494941",
"s c #494941",
"d c #494941",
"f c #494941",
"g c #494941",
"h c #494941",
/* pixels */
" .XoO+@#$%&*=-;:>,<123",
"4567890qwertyuipasdfgh"
};
