/* XPM */
static char *maximize_unfocus[] = {
/* columns rows colors chars-per-pixel */
"24 24 43 1 ",
"  c #242424",
". c #282424",
"X c #282824",
"o c #2D2828",
"O c #2D2D28",
"+ c #2D2D2D",
"@ c #312D2D",
"# c #31312D",
"$ c #35312D",
"% c #313131",
"& c #353131",
"* c #353531",
"= c #393531",
"- c #393931",
"; c #393935",
": c #3D3935",
"> c #3D3D35",
", c #3D3939",
"< c #3D3D39",
"1 c #413D39",
"2 c #414139",
"3 c #41413D",
"4 c #45453D",
"5 c #454541",
"6 c #494541",
"7 c #494945",
"8 c #4D4D45",
"9 c #4D4D49",
"0 c #514D49",
"q c #515149",
"w c #51514D",
"e c #55514D",
"r c #55554D",
"t c #555551",
"y c #595551",
"u c #595951",
"i c #5D5955",
"p c #5D5D55",
"a c #5D5D59",
"s c #616159",
"d c #61615D",
"f c #65655D",
"g c #656561",
/* pixels */
"ffffffffffffffffffffffff",
"ssssssssssssssssssssssss",
"iiiiiiiiiiiiiiiiiiiiiiii",
"yyyyyyyyyyyyyyyyyyyyyyyy",
"eeeeeeeeeeeeeeeeeeeeeeee",
"0000000953<<<<3580000000",
"7777773<<379973<<3777777",
"55554<<7upaaaapt6<<45555",
"3332<<tpaaaaaaaapr<<2333",
"<<<<<yaaassssssaaat<<<<<",
":::<waaapaaaaaapaaaw<>::",
";;<3paas<133331<saap3<;;",
"-;<9aass<pffffp<ssaa9<;-",
"*;<raass<pffffp<ssaat<;*",
"*;<yaass<afggfa<ssaat<;*",
"$=<taass<pffffp<ssaar<=$",
"#*<9aass<pdffdp<ssaa8<&#",
"##:3paas<<<<<<<<saap3:##",
"OO*<qaaaassssssaaaaq<*OO",
"OOO;<taaassssssaaat<;OOO",
"oooO:<wpaaaaaaaapr<:Oooo",
"XXXXO;<5tppaappt5<;OXXXX",
"XXXXXX&:<15775<<<%XXXXXX",
"       .+*;,:;*@.       "
};
