/* XPM */
static char *maximize_focus[] = {
/* columns rows colors chars-per-pixel */
"24 24 67 1 ",
"  c #242424",
". c #282424",
"X c #282824",
"o c #2D2828",
"O c #2D2D28",
"+ c #2D2D2D",
"@ c #312D2D",
"# c #31312D",
"$ c #35312D",
"% c #313131",
"& c #353131",
"* c #353531",
"= c #393531",
"- c #393931",
"; c #393935",
": c #3D3935",
"> c #3D3D35",
", c #3D3939",
"< c #3D3D39",
"1 c #413D39",
"2 c #414139",
"3 c #41413D",
"4 c #45413D",
"5 c #45453D",
"6 c #454541",
"7 c #494541",
"8 c #494941",
"9 c #494945",
"0 c #4D4945",
"q c #4D4D45",
"w c #4D4D49",
"e c #514D49",
"r c #55514D",
"t c #55554D",
"y c #555551",
"u c #595551",
"i c #595951",
"p c #595955",
"a c #5D5955",
"s c #5D5D55",
"d c #5D5D59",
"f c #616159",
"g c #65655D",
"h c #69695D",
"j c #656561",
"k c #696561",
"l c #696961",
"z c #6D6D61",
"x c #6D6D65",
"c c #717165",
"v c #717169",
"b c #757169",
"n c #757569",
"m c #75756D",
"M c #79756D",
"N c #79796D",
"B c #797971",
"V c #7D7D71",
"C c #7D7D75",
"Z c #827D75",
"A c #828275",
"S c #828279",
"D c #868679",
"F c #8A8A7D",
"G c #8E8E82",
"H c #929282",
"J c #929286",
/* pixels */
"gggggggggggggggggggggggg",
"ffffffffffffffffffffffff",
"aaaaaaaaaaaaaaaaaaaaaaaa",
"uuuuuuuuuuuuuuuuuuuuuuuu",
"rrrrrrrrrrrrrrrrrrrrrrrr",
"eeeeeeew631<<136qeeeeeee",
"9999993<<9flhs9<<3999999",
"66665<<sDJJHGGGVu<<56666",
"3332<4VJHGGGGFFFFv3<2333",
"<<<<3AGGGGFFFFDDDDm2<<<<",
":::<cGGFAAZCVVVVAAAg<>::",
";;<0FFFF34555543CCVV7<;;",
"-;<gFFDD3mAAAAv3VBBNa<;-",
"*;<bDDDA3mACVVc3BNmmg<;*",
"*;<MSAAA3vVVBBx2mmnnl<;*",
"$=<xACVV3cBNNmz2nvvvf<=$",
"#*<sVVBB3xmmmnl2vcxxt<&#",
"##,6BNNm2<<<<<<2xxxl4:##",
"OO*<smmnvvcxxxxxllly<*OO",
"OOO;<kvvvxxxxlllljs<;OOO",
"oooO:<sxxxlllljggi<:Oooo",
"XXXXO;<9dlljgggp7<;OXXXX",
"XXXXXX&:<29qq81<<%XXXXXX",
"       .+*;,:;*@.       "
};
