/* XPM */
static char *maximize_pressed[] = {
/* columns rows colors chars-per-pixel */
"24 24 73 1 ",
"  c #242424",
". c #282424",
"X c #282824",
"o c #2D2828",
"O c #2D2D28",
"+ c #2D2D2D",
"@ c #312D2D",
"# c #31312D",
"$ c #35312D",
"% c #313131",
"& c #353131",
"* c #353531",
"= c #393531",
"- c #393931",
"; c #393935",
": c #3D3935",
"> c #3D3D35",
", c #3D3939",
"< c #3D3D39",
"1 c #413D39",
"2 c #414139",
"3 c #41413D",
"4 c #45413D",
"5 c #45453D",
"6 c #454541",
"7 c #494541",
"8 c #494945",
"9 c #4D4D45",
"0 c #4D4D49",
"q c #514D49",
"w c #51514D",
"e c #55514D",
"r c #595551",
"t c #5D5955",
"y c #615D5D",
"u c #616159",
"i c #61615D",
"p c #65655D",
"a c #656561",
"s c #696965",
"d c #6D6D65",
"f c #716D69",
"g c #71716D",
"h c #757571",
"j c #7D7D79",
"k c #82827D",
"l c #86867D",
"z c #868682",
"x c #8A8A86",
"c c #8E8E8A",
"v c #92928A",
"b c #92928E",
"n c #96968E",
"m c #969692",
"M c #9A9A92",
"N c #9A9A96",
"B c #9E9E96",
"V c #9E9E9A",
"C c #A29E9A",
"Z c #A2A29A",
"A c #A2A29E",
"S c #A6A6A2",
"D c #AAAAA2",
"F c #AAAAA6",
"G c #AEAEA6",
"H c #AEAEAA",
"J c #B2B2AA",
"K c #B2B2AE",
"L c #B6B6AE",
"P c #B6B6B2",
"I c #BABAB2",
"U c #BABAB6",
"Y c #BEBEB6",
/* pixels */
"pppppppppppppppppppppppp",
"uuuuuuuuuuuuuuuuuuuuuuuu",
"tttttttttttttttttttttttt",
"rrrrrrrrrrrrrrrrrrrrrrrr",
"eeeeeeeeeeeeeeeeeeeeeeee",
"qqqqqqq0631<<1369qqqqqqq",
"8888883<<0sgga0<<3888888",
"666651<amDDSSSSby<<56666",
"3332<6vFFFFFDSSSSx5<2333",
"<<<<4NHGFFFFFFDDSSb3<<<<",
":::<lHHHAZCCVVVVFDSk<>::",
";;<wJJHH37888863FFFSq<;;",
"-;<jKJJJ3BHHHHN3FFFFh<;-",
"*;<mLKKK3VJHHHN3HGFFc<;*",
"*;<ZLLLK5ZJJJJB3HHHGm<;*",
"$=<MPLLL5ZKKKJV3HHHHc<=$",
"#*<jIIPP5ALLKKZ3JJJHh<&#",
"##,wIIII5<<<<<<5KKJJ0,##",
"OO*<zIIIILLLLLKLLKKk<*OO",
"OOO:1ZYUIIIIIPPLLLN3:OOO",
"oooO<3nYYUIIIIIIPv3>Oooo",
"XXXXO;<iZYYYUIIBi<;OXXXX",
"XXXXXX&<<8afdi6<<%XXXXXX",
"       .+*:<<;*@.       "
};
