/* XPM */
static char *menu_pressed[] = {
/* columns rows colors chars-per-pixel */
"24 24 31 1 ",
"  c #242424",
". c #282824",
"X c #2D2828",
"o c #2D2D28",
"O c #31312D",
"+ c #35312D",
"@ c #313131",
"# c #353531",
"$ c #393931",
"% c #393935",
"& c #3D3935",
"* c #3D3D35",
"= c #3D3D39",
"- c #414139",
"; c #41413D",
": c #45413D",
"> c #454541",
", c #494945",
"< c #514D49",
"1 c #515149",
"2 c #55514D",
"3 c #55554D",
"4 c #555551",
"5 c #595551",
"6 c #5D5955",
"7 c #616159",
"8 c #65655D",
"9 c #696961",
"0 c #8E8E82",
"q c #8E8E86",
"w c #929286",
/* pixels */
"888888888888888888888888",
"777777777777777777777777",
"666666666666666666666666",
"555555555555555555555555",
"222222222222222222222222",
"<<<<>==============><<<<",
",,,,:==============:,,,,",
">>>>;==============;>>>>",
";;;;================;;;;",
"========================",
"&&&&*==============*&&&&",
"%%%%%==============%%%%%",
"$$$$%==============%$$$$",
"####%==============%####",
"####%=-8999999998-=%####",
"++++%==10wwwwww01==%++++",
"OOOO#===30wwww01===#OOOO",
"OOOO#====3qww01====#OOOO",
"oooo#=====3q01=====#oooo",
"oooo#======42======#oooo",
"XXXX#==============#XXXX",
"....@==============@....",
"....O==============O....",
"    O==============O    "
};
