/* XPM */
static char *minimize_pressed[] = {
/* columns rows colors chars-per-pixel */
"24 24 70 1 ",
"  c #242424",
". c #282424",
"X c #282824",
"o c #2D2828",
"O c #2D2D28",
"+ c #2D2D2D",
"@ c #312D2D",
"# c #31312D",
"$ c #35312D",
"% c #313131",
"& c #353131",
"* c #353531",
"= c #393531",
"- c #393931",
"; c #393935",
": c #3D3935",
"> c #3D3D35",
", c #3D3939",
"< c #3D3D39",
"1 c #413D39",
"2 c #414139",
"3 c #41413D",
"4 c #45413D",
"5 c #45453D",
"6 c #454541",
"7 c #494945",
"8 c #4D4D45",
"9 c #4D4D49",
"0 c #514D49",
"q c #51514D",
"w c #55514D",
"e c #595551",
"r c #5D5955",
"t c #615D5D",
"y c #616159",
"u c #61615D",
"i c #65655D",
"p c #656561",
"a c #696965",
"s c #6D6D65",
"d c #716D69",
"f c #71716D",
"g c #757571",
"h c #7D7D79",
"j c #828279",
"k c #82827D",
"l c #86867D",
"z c #868682",
"x c #8A8A86",
"c c #8E8E8A",
"v c #92928A",
"b c #92928E",
"n c #96968E",
"m c #969692",
"M c #9A9A92",
"N c #9A9A96",
"B c #9E9E96",
"V c #A2A29A",
"C c #A6A6A2",
"Z c #AAAAA2",
"A c #AAAAA6",
"S c #AEAEA6",
"D c #AEAEAA",
"F c #B2B2AA",
"G c #B2B2AE",
"H c #B6B6AE",
"J c #B6B6B2",
"K c #BABAB2",
"L c #BABAB6",
"P c #BEBEB6",
/* pixels */
"iiiiiiiiiiiiiiiiiiiiiiii",
"yyyyyyyyyyyyyyyyyyyyyyyy",
"rrrrrrrrrrrrrrrrrrrrrrrr",
"eeeeeeeeeeeeeeeeeeeeeeee",
"wwwwwwwwwwwwwwwwwwwwwwww",
"00000009631<<13680000000",
"7777773<<9affp9<<3777777",
"666651<pmZZCCCCbt<<56666",
"3332<6vAAAAAZCCCCx5<2333",
"<<<<4NDSAAAAAAZZCCb3<<<<",
":::<lDDDDSAAAAAAAZCk<>::",
";;<qFFDDDDDDSAAAAAAC0<;;",
"-;<hGFFFFDDDDDSAAAAAg<;-",
"*;<mHGGFSSAAAAAZASAAc<;*",
"*;<VHHHk33333333jDDSm<;*",
"$=<MJHHHHHGGGFFFDDDDc<=$",
"#*<hKKJJHHHHGGGFFFFDg<&#",
"##,qKKKKJJHHHHHGGGFF9,##",
"OO*<zKKKKKKJJHHHHGGk<*OO",
"OOO:1VPLKKKKKJJHHHN3:OOO",
"oooO<3nPPLKKKKKKJv3>Oooo",
"XXXXO;<uVPPPLKKBu<;OXXXX",
"XXXXXX&<<7pdsu6<<%XXXXXX",
"       .+*:<<;*@.       "
};
