/* XPM */
static char *minimize_focus[] = {
/* columns rows colors chars-per-pixel */
"24 24 66 1 ",
"  c #242424",
". c #282424",
"X c #282824",
"o c #2D2828",
"O c #2D2D28",
"+ c #2D2D2D",
"@ c #312D2D",
"# c #31312D",
"$ c #35312D",
"% c #313131",
"& c #353131",
"* c #353531",
"= c #393531",
"- c #393931",
"; c #393935",
": c #3D3935",
"> c #3D3D35",
", c #3D3939",
"< c #3D3D39",
"1 c #413D39",
"2 c #414139",
"3 c #41413D",
"4 c #45413D",
"5 c #45453D",
"6 c #454541",
"7 c #494541",
"8 c #494941",
"9 c #494945",
"0 c #4D4945",
"q c #4D4D45",
"w c #4D4D49",
"e c #514D49",
"r c #55514D",
"t c #55554D",
"y c #555551",
"u c #595551",
"i c #595951",
"p c #595955",
"a c #5D5955",
"s c #5D5D55",
"d c #5D5D59",
"f c #616159",
"g c #65655D",
"h c #69695D",
"j c #656561",
"k c #696561",
"l c #696961",
"z c #6D6D65",
"x c #717165",
"c c #717169",
"v c #757169",
"b c #757569",
"n c #75756D",
"m c #79756D",
"M c #79796D",
"N c #797971",
"B c #7D7D71",
"V c #7D7D75",
"C c #828275",
"Z c #828279",
"A c #868679",
"S c #86867D",
"D c #8A8A7D",
"F c #8E8E82",
"G c #929282",
"H c #929286",
/* pixels */
"gggggggggggggggggggggggg",
"ffffffffffffffffffffffff",
"aaaaaaaaaaaaaaaaaaaaaaaa",
"uuuuuuuuuuuuuuuuuuuuuuuu",
"rrrrrrrrrrrrrrrrrrrrrrrr",
"eeeeeeew631<<136qeeeeeee",
"9999993<<9flhs9<<3999999",
"66665<<sAHHGFFFBu<<56666",
"3332<4BHGFFFFDDDDc3<2333",
"<<<<3CFFFFDDDDAAAAn2<<<<",
":::<xFFDDDDSAAAZCCCg<>::",
";;<0DDDDSAAAZCCCVVBB7<;;",
"-;<gDDAAAZCCCCVBBNNMa<;-",
"*;<vAAACVBBBNNMnMMnng<;*",
"*;<mZCCg<<<<<<<<snbbl<;*",
"$=<zCVBBBNNMMnnbbcccf<=$",
"#*<sBBNNMMnnnbcccxzzt<&#",
"##,6NMMnnnbcccxzzzzl4:##",
"OO*<snnbcccxzzzzllly<*OO",
"OOO;<kccczzzzlllljs<;OOO",
"oooO:<szzzlllljggi<:Oooo",
"XXXXO;<9dlljgggp7<;OXXXX",
"XXXXXX&:<29qq81<<%XXXXXX",
"       .+*;,:;*@.       "
};
