/* XPM */
static char *shade_pressed[] = {
/* columns rows colors chars-per-pixel */
"24 24 35 1 ",
"  c #242424",
". c #282824",
"X c #2D2828",
"o c #2D2D28",
"O c #31312D",
"+ c #35312D",
"@ c #313131",
"# c #353531",
"$ c #393931",
"% c #393935",
"& c #3D3935",
"* c #3D3D35",
"= c #3D3D39",
"- c #41413D",
"; c #45413D",
": c #454541",
"> c #494945",
", c #4D4D49",
"< c #514D49",
"1 c #515149",
"2 c #51514D",
"3 c #55514D",
"4 c #55554D",
"5 c #555551",
"6 c #595551",
"7 c #595955",
"8 c #5D5955",
"9 c #616159",
"0 c #65655D",
"q c #6D6D65",
"w c #717169",
"e c #797971",
"r c #8A8A7D",
"t c #8E8E82",
"y c #929286",
/* pixels */
"000000000000000000000000",
"999999999999999999999999",
"888888888888888888888888",
"666666666666666666666666",
"333333333333333333333333",
"<<<<:==============:<<<<",
">>>>;==============;>>>>",
"::::-==============-::::",
"----================----",
"===========53===========",
"&&&&*=====5yy4=====*&&&&",
"%%%%%====2tyyt1====%%%%%",
"$$$$%===1tyyyyt,===%$$$$",
"####%==,tyyyyyyt,==%####",
"####%=-ryyqyywyyr-=%####",
"++++%==0y54yy47y9==%++++",
"OOOO#===1=4yy4=1===#OOOO",
"OOOO#=====4yy4=====#OOOO",
"oooo#=====4yy4=====#oooo",
"oooo#=====,ee,=====#oooo",
"XXXX#==============#XXXX",
"....@==============@....",
"....O==============O....",
"    O==============O    "
};
