/* XPM */
static char *shade_focus[] = {
/* columns rows colors chars-per-pixel */
"24 24 38 1 ",
"  c #242424",
". c #282824",
"X c #2D2828",
"o c #2D2D28",
"O c #31312D",
"+ c #35312D",
"@ c #313131",
"# c #353531",
"$ c #393931",
"% c #393935",
"& c #3D3935",
"* c #3D3D35",
"= c #3D3D39",
"- c #41413D",
"; c #45413D",
": c #454541",
"> c #494945",
", c #514D49",
"< c #515149",
"1 c #51514D",
"2 c #55514D",
"3 c #55554D",
"4 c #555551",
"5 c #595551",
"6 c #595955",
"7 c #5D5955",
"8 c #5D5D55",
"9 c #616159",
"0 c #65655D",
"q c #696961",
"w c #757569",
"e c #79796D",
"r c #828279",
"t c #929286",
"y c #92928A",
"u c #96968A",
"i c #9A9A8E",
"p c #9E9E92",
/* pixels */
"000000000000000000000000",
"999999999999999999999999",
"777777777777777777777777",
"555555555555555555555555",
"222222222222222222222222",
",,,,:==============:,,,,",
">>>>;==============;>>>>",
"::::-==============-::::",
"----================----",
"===========53===========",
"&&&&*=====5ii5=====*&&&&",
"%%%%%====3ippi3====%%%%%",
"$$$$%===2ippppu<===%$$$$",
"####%==<uppppppu,==%####",
"####%=-ypiwppeipt-=%####",
"++++%==qi64pp48i0==%++++",
"OOOO#===1=4pp4=2===#OOOO",
"OOOO#=====4pp4=====#OOOO",
"oooo#=====4pp4=====#oooo",
"oooo#=====<rr<=====#oooo",
"XXXX#==============#XXXX",
"....@==============@....",
"....O==============O....",
"    O==============O    "
};
