/* XPM */
static char *shade_unfocus[] = {
/* columns rows colors chars-per-pixel */
"24 24 34 1 ",
"  c #242424",
". c #282824",
"X c #2D2828",
"o c #2D2D28",
"O c #31312D",
"+ c #35312D",
"@ c #313131",
"# c #353531",
"$ c #393931",
"% c #393935",
"& c #3D3935",
"* c #3D3D35",
"= c #3D3D39",
"- c #413D39",
"; c #41413D",
": c #45413D",
"> c #454541",
", c #494541",
"< c #494941",
"1 c #494945",
"2 c #4D4945",
"3 c #4D4D45",
"4 c #514D49",
"5 c #515149",
"6 c #55514D",
"7 c #555551",
"8 c #595551",
"9 c #595951",
"0 c #5D5955",
"q c #5D5D55",
"w c #616159",
"e c #65655D",
"r c #69695D",
"t c #696961",
/* pixels */
"eeeeeeeeeeeeeeeeeeeeeeee",
"wwwwwwwwwwwwwwwwwwwwwwww",
"000000000000000000000000",
"888888888888888888888888",
"666666666666666666666666",
"4444>==============>4444",
"1111:==============:1111",
">>>>;==============;>>>>",
";;;;================;;;;",
"===========1<===========",
"&&&&*=====1tt1=====*&&&&",
"%%%%%====<tttr,====%%%%%",
"$$$$%===<rttttr>===%$$$$",
"####%==>rttttttr>==%####",
"####%=-ett7tt9tte-=%####",
"++++%==6t2<tt<3t5==%++++",
"OOOO#===>=<tt<=,===#OOOO",
"OOOO#=====<tt<=====#OOOO",
"oooo#=====<tt<=====#oooo",
"oooo#=====>qq>=====#oooo",
"XXXX#==============#XXXX",
"....@==============@....",
"....O==============O....",
"    O==============O    "
};
