/* XPM */
static char *stick_pressed[] = {
/* columns rows colors chars-per-pixel */
"24 24 44 1 ",
"  c #242424",
". c #282824",
"X c #2D2828",
"o c #2D2D28",
"O c #31312D",
"+ c #35312D",
"@ c #313131",
"# c #353531",
"$ c #393931",
"% c #393935",
"& c #3D3935",
"* c #3D3D35",
"= c #3D3D39",
"- c #413D39",
"; c #414139",
": c #41413D",
"> c #45413D",
", c #45453D",
"< c #454541",
"1 c #494945",
"2 c #4D4945",
"3 c #4D4D45",
"4 c #4D4D49",
"5 c #514D49",
"6 c #55514D",
"7 c #555551",
"8 c #595551",
"9 c #595951",
"0 c #5D5955",
"q c #5D5D55",
"w c #616159",
"e c #65615D",
"r c #65655D",
"t c #696961",
"y c #717165",
"u c #717169",
"i c #79756D",
"p c #828275",
"a c #828279",
"s c #868679",
"d c #8E8E7D",
"f c #8A8A82",
"g c #8E8E82",
"h c #929286",
/* pixels */
"rrrrrrrrrrrrrrrrrrrrrrrr",
"wwwwwwwwwwwwwwwwwwwwwwww",
"000000000000000000000000",
"888888888888888888888888",
"666666666666666666666666",
"5555<==============<5555",
"1111>==============>1111",
"<<<<:==============:<<<<",
"::::================::::",
"=========4q=============",
"&&&&*===5ghe=======*&&&&",
"%%%%%==5ghhhe======%%%%%",
"$$$$%=:dhhhhhuyyt-=%$$$$",
"####%==9hhhhhhhf3==%####",
"####%===9hhhhhg3===%####",
"++++%====qhhhh7====%++++",
"OOOO#====;hhgaa,===#OOOO",
"OOOO#====;hd2:ps<==#OOOO",
"oooo#====;g4==>aa>=#oooo",
"oooo#====-4====,i3=#oooo",
"XXXX#==============#XXXX",
"....@==============@....",
"....O==============O....",
"    O==============O    "
};
