/* XPM */
static char *stick_unfocus[] = {
/* columns rows colors chars-per-pixel */
"24 24 35 1 ",
"  c #242424",
". c #282824",
"X c #2D2828",
"o c #2D2D28",
"O c #31312D",
"+ c #35312D",
"@ c #313131",
"# c #353531",
"$ c #393931",
"% c #393935",
"& c #3D3935",
"* c #3D3D35",
"= c #3D3D39",
"- c #413D39",
"; c #414139",
": c #41413D",
"> c #45413D",
", c #45453D",
"< c #454541",
"1 c #494945",
"2 c #4D4D45",
"3 c #4D4D49",
"4 c #514D49",
"5 c #515149",
"6 c #55514D",
"7 c #55554D",
"8 c #595551",
"9 c #595951",
"0 c #5D5955",
"q c #5D5D55",
"w c #616159",
"e c #656559",
"r c #65655D",
"t c #69695D",
"y c #696961",
/* pixels */
"rrrrrrrrrrrrrrrrrrrrrrrr",
"wwwwwwwwwwwwwwwwwwwwwwww",
"000000000000000000000000",
"888888888888888888888888",
"666666666666666666666666",
"4444<==============<4444",
"1111>==============>1111",
"<<<<:==============:<<<<",
"::::================::::",
"=========<3=============",
"&&&&*===<ty5=======*&&&&",
"%%%%%==<tyyy5======%%%%%",
"$$$$%=-tyyyyy9997==%$$$$",
"####%==2yyyyyyyr<==%####",
"####%===2yyyyyr<===%####",
"++++%====3yyyy1====%++++",
"OOOO#=====yytww;===#OOOO",
"OOOO#=====yt,=we:==#OOOO",
"oooo#=====t<==;ww;=#oooo",
"oooo#=====<====:q<=#oooo",
"XXXX#==============#XXXX",
"....@==============@....",
"....O==============O....",
"    O==============O    "
};
