/* XPM */
static char *stick_focus[] = {
/* columns rows colors chars-per-pixel */
"24 24 42 1 ",
"  c #242424",
". c #282824",
"X c #2D2828",
"o c #2D2D28",
"O c #31312D",
"+ c #35312D",
"@ c #313131",
"# c #353531",
"$ c #393931",
"% c #393935",
"& c #3D3935",
"* c #3D3D35",
"= c #3D3D39",
"- c #413D39",
"; c #41413D",
": c #45413D",
"> c #45453D",
", c #454541",
"< c #494541",
"1 c #494945",
"2 c #4D4D49",
"3 c #514D49",
"4 c #515149",
"5 c #51514D",
"6 c #55514D",
"7 c #595551",
"8 c #595955",
"9 c #5D5955",
"0 c #5D5D55",
"q c #616159",
"w c #65655D",
"e c #696961",
"r c #716D65",
"t c #75756D",
"y c #797971",
"u c #7D7D75",
"i c #8A8A7D",
"p c #8A8A82",
"a c #8E8E82",
"s c #96968A",
"d c #9A9A8E",
"f c #9E9E92",
/* pixels */
"wwwwwwwwwwwwwwwwwwwwwwww",
"qqqqqqqqqqqqqqqqqqqqqqqq",
"999999999999999999999999",
"777777777777777777777777",
"666666666666666666666666",
"3333,==============,3333",
"1111:==============:1111",
",,,,;==============;,,,,",
";;;;================;;;;",
"=========3q=============",
"&&&&*===5sfe=======*&&&&",
"%%%%%==5sfffe======%%%%%",
"$$$$%=;sffffdyttr-=%$$$$",
"####%==0dffffffs2==%####",
"####%===0dffffs2===%####",
"++++%====qffff8====%++++",
"OOOO#====;ffspp>===#OOOO",
"OOOO#====;fs2;ia<==#OOOO",
"oooo#====;s4==>ap>=#oooo",
"oooo#====-4====,u2=#oooo",
"XXXX#==============#XXXX",
"....@==============@....",
"....O==============O....",
"    O==============O    "
};
