/* XPM */
static char *title_focus[] = {
/* columns rows colors chars-per-pixel */
"2 24 48 1 ",
"  c #65655D",
". c #65655D",
"X c #616159",
"o c #616159",
"O c #5D5955",
"+ c #5D5955",
"@ c #595551",
"# c #595551",
"$ c #55514D",
"% c #55514D",
"& c #514D49",
"* c #514D49",
"= c #494945",
"- c #494945",
"; c #454541",
": c #454541",
"> c #41413D",
", c #41413D",
"< c #3D3D39",
"1 c #3D3D39",
"2 c #3D3935",
"3 c #3D3935",
"4 c #393935",
"5 c #393935",
"6 c #393931",
"7 c #393931",
"8 c #353531",
"9 c #353531",
"0 c #353531",
"q c #353531",
"w c #35312D",
"e c #35312D",
"r c #31312D",
"t c #31312D",
"y c #31312D",
"u c #31312D",
"i c #2D2D28",
"p c #2D2D28",
"a c #2D2D28",
"s c #2D2D28",
"d c #2D2828",
"f c #2D2828",
"g c #282824",
"h c #282824",
"j c #282824",
"k c #282824",
"l c #242424",
"z c #242424",
/* pixels */
" .",
"Xo",
"O+",
"@#",
"$%",
"&*",
"=-",
";:",
">,",
"<1",
"23",
"45",
"67",
"89",
"0q",
"we",
"rt",
"yu",
"ip",
"as",
"df",
"gh",
"jk",
"lz"
};
