/* XPM */
static char *unshade_focus[] = {
/* columns rows colors chars-per-pixel */
"24 24 41 1 ",
"  c #242424",
". c #282824",
"X c #2D2828",
"o c #2D2D28",
"O c #31312D",
"+ c #35312D",
"@ c #313131",
"# c #353531",
"$ c #393931",
"% c #393935",
"& c #3D3935",
"* c #3D3D35",
"= c #3D3D39",
"- c #41413D",
"; c #45413D",
": c #454541",
"> c #494945",
", c #4D4945",
"< c #4D4D45",
"1 c #4D4D49",
"2 c #514D49",
"3 c #515149",
"4 c #51514D",
"5 c #55514D",
"6 c #55554D",
"7 c #555551",
"8 c #595551",
"9 c #5D5955",
"0 c #616159",
"q c #65655D",
"w c #6D6D65",
"e c #717169",
"r c #757569",
"t c #79796D",
"y c #8A8A7D",
"u c #929286",
"i c #92928A",
"p c #96968A",
"a c #96968E",
"s c #9A9A8E",
"d c #9E9E92",
/* pixels */
"qqqqqqqqqqqqqqqqqqqqqqqq",
"000000000000000000000000",
"999999999999999999999999",
"888888888888888888888888",
"555555555555555555555555",
"2222:==============:2222",
">>>>;==============;>>>>",
"::::-==============-::::",
"----================----",
"==========4yy4==========",
"&&&&*=====7dd7=====*&&&&",
"%%%%%=====7dd7=====%%%%%",
"$$$$%===4=7dd7=5===%$$$$",
"####%==es07dd7qdw==%####",
"####%=-idsrddtsdu-=%####",
"++++%==>uddddddu>==%++++",
"OOOO#===<pddddi,===#OOOO",
"OOOO#====1pddp1====#OOOO",
"oooo#=====4sa3=====#oooo",
"oooo#======86======#oooo",
"XXXX#==============#XXXX",
"....@==============@....",
"....O==============O....",
"    O==============O    "
};
