/* XPM */
static char *unshade_unfocus[] = {
/* columns rows colors chars-per-pixel */
"24 24 34 1 ",
"  c #242424",
". c #282824",
"X c #2D2828",
"o c #2D2D28",
"O c #31312D",
"+ c #35312D",
"@ c #313131",
"# c #353531",
"$ c #393931",
"% c #393935",
"& c #3D3935",
"* c #3D3D35",
"= c #3D3D39",
"- c #413D39",
"; c #41413D",
": c #45413D",
"> c #45453D",
", c #454541",
"< c #494541",
"1 c #494941",
"2 c #494945",
"3 c #4D4D49",
"4 c #514D49",
"5 c #515149",
"6 c #55514D",
"7 c #55554D",
"8 c #555551",
"9 c #595551",
"0 c #595951",
"q c #5D5955",
"w c #616159",
"e c #65655D",
"r c #69695D",
"t c #696961",
/* pixels */
"eeeeeeeeeeeeeeeeeeeeeeee",
"wwwwwwwwwwwwwwwwwwwwwwww",
"qqqqqqqqqqqqqqqqqqqqqqqq",
"999999999999999999999999",
"666666666666666666666666",
"4444,==============,4444",
"2222:==============:2222",
",,,,;==============;,,,,",
";;;;================;;;;",
"==========<ww<==========",
"&&&&*=====1tt1=====*&&&&",
"%%%%%=====1tt1=====%%%%%",
"$$$$%===,=1tt1=<===%$$$$",
"####%==8t31tt15t7==%####",
"####%=-ett8tt0tte-=%####",
"++++%==:etttttte:==%++++",
"OOOO#===>etttte:===#OOOO",
"OOOO#====,rtte,====#OOOO",
"oooo#=====,rr,=====#oooo",
"oooo#======21======#oooo",
"XXXX#==============#XXXX",
"....@==============@....",
"....O==============O....",
"    O==============O    "
};
