/* XPM */
static char *unshade_pressed[] = {
/* columns rows colors chars-per-pixel */
"24 24 38 1 ",
"  c #242424",
". c #282824",
"X c #2D2828",
"o c #2D2D28",
"O c #31312D",
"+ c #35312D",
"@ c #313131",
"# c #353531",
"$ c #393931",
"% c #393935",
"& c #3D3935",
"* c #3D3D35",
"= c #3D3D39",
"- c #41413D",
"; c #45413D",
": c #454541",
"> c #494941",
", c #494945",
"< c #4D4D45",
"1 c #4D4D49",
"2 c #514D49",
"3 c #515149",
"4 c #55514D",
"5 c #55554D",
"6 c #555551",
"7 c #595551",
"8 c #5D5955",
"9 c #5D5D55",
"0 c #616159",
"q c #65655D",
"w c #696961",
"e c #6D6D65",
"r c #717169",
"t c #828275",
"y c #8A8A7D",
"u c #8A8A82",
"i c #8E8E82",
"p c #929286",
/* pixels */
"qqqqqqqqqqqqqqqqqqqqqqqq",
"000000000000000000000000",
"888888888888888888888888",
"777777777777777777777777",
"444444444444444444444444",
"2222:==============:2222",
",,,,;==============;,,,,",
"::::-==============-::::",
"----================----",
"==========3tt3==========",
"&&&&*=====5pp5=====*&&&&",
"%%%%%=====5pp5=====%%%%%",
"$$$$%===3=5pp5=3===%$$$$",
"####%==ep95pp50pw==%####",
"####%=-yppepprppy-=%####",
"++++%==>yppppppy>==%++++",
"OOOO#===<uppppy,===#OOOO",
"OOOO#====<ippi<====#OOOO",
"oooo#=====3ii1=====#oooo",
"oooo#======64======#oooo",
"XXXX#==============#XXXX",
"....@==============@....",
"....O==============O....",
"    O==============O    "
};
