/* XPM */
static char *unstick_focus[] = {
/* columns rows colors chars-per-pixel */
"24 24 32 1 ",
"  c #242424",
". c #282824",
"X c #2D2828",
"o c #2D2D28",
"O c #31312D",
"+ c #35312D",
"@ c #313131",
"# c #353531",
"$ c #393931",
"% c #393935",
"& c #3D3935",
"* c #3D3D35",
"= c #3D3D39",
"- c #41413D",
"; c #45413D",
": c #454541",
"> c #494945",
", c #4D4D49",
"< c #514D49",
"1 c #55514D",
"2 c #55554D",
"3 c #555551",
"4 c #595551",
"5 c #5D5955",
"6 c #616159",
"7 c #65655D",
"8 c #696961",
"9 c #6D6D65",
"0 c #797971",
"q c #7D7D75",
"w c #868679",
"e c #9E9E92",
/* pixels */
"777777777777777777777777",
"666666666666666666666666",
"555555555555555555555555",
"444444444444444444444444",
"111111111111111111111111",
"<<<<:==============:<<<<",
">>>>;==============;>>>>",
"::::-==============-::::",
"----================----",
"======,ww9====8ww,======",
"&&&&*=2eeq====0ee2=*&&&&",
"%%%%%=2eeq====0ee2=%%%%%",
"$$$$%=-33,====,33-=%$$$$",
"####%==============%####",
"####%==============%####",
"++++%==============%++++",
"OOOO#=-33,====,33-=#OOOO",
"OOOO#=2eeq====0ee2=#OOOO",
"oooo#=2eeq====0ee2=#oooo",
"oooo#=,ww9====8ww,=#oooo",
"XXXX#==============#XXXX",
"....@==============@....",
"....O==============O....",
"    O==============O    "
};
