/* XPM */
static char *unstick_unfocus[] = {
/* columns rows colors chars-per-pixel */
"24 24 31 1 ",
"  c #242424",
". c #282824",
"X c #2D2828",
"o c #2D2D28",
"O c #31312D",
"+ c #35312D",
"@ c #313131",
"# c #353531",
"$ c #393931",
"% c #393935",
"& c #3D3935",
"* c #3D3D35",
"= c #3D3D39",
"- c #413D39",
"; c #41413D",
": c #45413D",
"> c #45453D",
", c #454541",
"< c #494941",
"1 c #494945",
"2 c #514D49",
"3 c #55514D",
"4 c #55554D",
"5 c #595551",
"6 c #595955",
"7 c #5D5955",
"8 c #5D5D55",
"9 c #616155",
"0 c #616159",
"q c #65655D",
"w c #696961",
/* pixels */
"qqqqqqqqqqqqqqqqqqqqqqqq",
"000000000000000000000000",
"777777777777777777777777",
"555555555555555555555555",
"333333333333333333333333",
"2222,==============,2222",
"1111:==============:1111",
",,,,;==============;,,,,",
";;;;================;;;;",
"======,994====499,======",
"&&&&*=<ww8====6ww<=*&&&&",
"%%%%%=<ww8====6ww<=%%%%%",
"$$$$%=-<<>====,<<-=%$$$$",
"####%==============%####",
"####%==============%####",
"++++%==============%++++",
"OOOO#=-<<>====,<<-=#OOOO",
"OOOO#=<ww8====6ww<=#OOOO",
"oooo#=<ww8====6ww<=#oooo",
"oooo#=,994====499,=#oooo",
"XXXX#==============#XXXX",
"....@==============@....",
"....O==============O....",
"    O==============O    "
};
