/* XPM */
static char *unstick_pressed[] = {
/* columns rows colors chars-per-pixel */
"24 24 31 1 ",
"  c #242424",
". c #282824",
"X c #2D2828",
"o c #2D2D28",
"O c #31312D",
"+ c #35312D",
"@ c #313131",
"# c #353531",
"$ c #393931",
"% c #393935",
"& c #3D3935",
"* c #3D3D35",
"= c #3D3D39",
"- c #41413D",
"; c #45413D",
": c #454541",
"> c #494945",
", c #4D4945",
"< c #4D4D45",
"1 c #514D49",
"2 c #51514D",
"3 c #55514D",
"4 c #595551",
"5 c #5D5955",
"6 c #616159",
"7 c #65655D",
"8 c #696961",
"9 c #75756D",
"0 c #79756D",
"q c #7D7D71",
"w c #929286",
/* pixels */
"777777777777777777777777",
"666666666666666666666666",
"555555555555555555555555",
"444444444444444444444444",
"333333333333333333333333",
"1111:==============:1111",
">>>>;==============;>>>>",
"::::-==============-::::",
"----================----",
"======<qq8====7qq<======",
"&&&&*=2ww0====9ww2=*&&&&",
"%%%%%=2ww0====9ww2=%%%%%",
"$$$$%=-22,====,22-=%$$$$",
"####%==============%####",
"####%==============%####",
"++++%==============%++++",
"OOOO#=-22,====,22-=#OOOO",
"OOOO#=2ww0====9ww2=#OOOO",
"oooo#=2ww0====9ww2=#oooo",
"oooo#=<qq8====7qq<=#oooo",
"XXXX#==============#XXXX",
"....@==============@....",
"....O==============O....",
"    O==============O    "
};
